<?xml version="1.0" encoding="UTF-8" standalone="no"?>
<!-- Created with Inkscape (http://www.inkscape.org/) -->

<svg
   width="297mm"
   height="210mm"
   viewBox="0 0 1122.5197 793.70081"
   version="1.1"
   id="svg1"
   inkscape:version="1.4.2 (f4327f4, 2025-05-13)"
   sodipodi:docname="Logo.svg"
   xmlns:inkscape="http://www.inkscape.org/namespaces/inkscape"
   xmlns:sodipodi="http://sodipodi.sourceforge.net/DTD/sodipodi-0.dtd"
   xmlns:xlink="http://www.w3.org/1999/xlink"
   xmlns="http://www.w3.org/2000/svg"
   xmlns:svg="http://www.w3.org/2000/svg">
  <sodipodi:namedview
     id="namedview1"
     pagecolor="#ffffff"
     bordercolor="#000000"
     borderopacity="0.25"
     inkscape:showpageshadow="2"
     inkscape:pageopacity="0.0"
     inkscape:pagecheckerboard="0"
     inkscape:deskcolor="#d1d1d1"
     inkscape:document-units="mm"
     inkscape:zoom="1.4521644"
     inkscape:cx="657.63902"
     inkscape:cy="399.74812"
     inkscape:window-width="1446"
     inkscape:window-height="1001"
     inkscape:window-x="0"
     inkscape:window-y="73"
     inkscape:window-maximized="0"
     inkscape:current-layer="layer1"
     showguides="true" />
  <defs
     id="defs1">
    <linearGradient
       id="linearGradient47"
       inkscape:collect="always">
      <stop
         style="stop-color:#3a1f17;stop-opacity:1;"
         offset="0"
         id="stop47" />
      <stop
         style="stop-color:#a6541e;stop-opacity:0.59090906;"
         offset="1"
         id="stop48" />
    </linearGradient>
    <inkscape:perspective
       sodipodi:type="inkscape:persp3d"
       inkscape:vp_x="0 : 396.85041 : 1"
       inkscape:vp_y="0 : 1000 : 0"
       inkscape:vp_z="1122.5197 : 396.85041 : 1"
       inkscape:persp3d-origin="561.25985 : 264.56694 : 1"
       id="perspective3" />
    <rect
       x="253.20516"
       y="291.18593"
       width="248.33583"
       height="116.86392"
       id="rect3" />
    <rect
       x="433.37037"
       y="286.3166"
       width="178.21748"
       height="129.52418"
       id="rect2" />
    <linearGradient
       inkscape:collect="always"
       xlink:href="#linearGradient47"
       id="linearGradient48"
       x1="202.284"
       y1="390.27543"
       x2="829.37225"
       y2="393.19702"
       gradientUnits="userSpaceOnUse" />
  </defs>
  <g
     inkscape:label="Layer 1"
     inkscape:groupmode="layer"
     id="layer1">
    <g
       sodipodi:type="inkscape:box3d"
       id="g3"
       style="fill:#000000;stroke-width:1.00157;paint-order:stroke fill markers"
       inkscape:perspectiveID="#perspective3"
       inkscape:corner0="2.2377608 : 1.0198938 : 0 : 1"
       inkscape:corner7="-0.26395733 : -0.14117839 : 0.32540996 : 1">
      <path
         sodipodi:type="inkscape:box3dside"
         id="path8"
         style="fill:#e9e9ff;fill-rule:evenodd;stroke:none;stroke-linejoin:round"
         inkscape:box3dsidetype="11"
         d="M 260.03214,147.74351 872.8971,-439.3719 V 654.48022 L 260.03214,473.59716 Z"
         points="872.8971,-439.3719 872.8971,654.48022 260.03214,473.59716 260.03214,147.74351 " />
      <path
         sodipodi:type="inkscape:box3dside"
         id="path3"
         style="fill:#353564;fill-rule:evenodd;stroke:none;stroke-linejoin:round"
         inkscape:box3dsidetype="6"
         d="m 173.34815,122.70711 v 358.60346 l 86.68399,-7.71341 V 147.74351 Z"
         points="173.34815,481.31057 260.03214,473.59716 260.03214,147.74351 173.34815,122.70711 " />
      <path
         sodipodi:type="inkscape:box3dside"
         id="path7"
         style="fill:#afafde;fill-rule:evenodd;stroke:none;stroke-linejoin:round"
         inkscape:box3dsidetype="13"
         d="M 173.34815,481.31057 762.5371,768.3803 872.8971,654.48022 260.03214,473.59716 Z"
         points="762.5371,768.3803 872.8971,654.48022 260.03214,473.59716 173.34815,481.31057 " />
      <path
         id="path4"
         style="fill:#4d4d9f;fill-rule:evenodd;stroke-linejoin:round"
         d="M 173.34815,122.70711 755.72003,109.28364 876.79256,273.49803 260.03214,147.74351 Z"
         sodipodi:nodetypes="ccccc" />
      <path
         sodipodi:type="inkscape:box3dside"
         id="path6"
         style="fill:#d7d7ff;fill-rule:evenodd;stroke:none;stroke-linejoin:round"
         inkscape:box3dsidetype="14"
         d="M 762.5371,-809.07202 V 768.3803 l 110.36,-113.90008 V -439.3719 Z"
         points="762.5371,768.3803 872.8971,654.48022 872.8971,-439.3719 762.5371,-809.07202 " />
    </g>
    <path
       d="m 293.27573,304.97244 c 2.17617,7.68895 3.88602,18.83794 5.12954,33.44696 l -7.92743,9.22671 c -1.2435,-13.84011 -2.64245,-24.60465 -4.19686,-32.2936 z m -23.90586,16.8647 c -0.62179,26.91133 -5.91621,49.74773 -8.09234,74.35238 L 202.284,341.90897 c 2.48702,-29.98693 40.89288,27.05918 41.20377,1.68565 l 28.33737,-24.7821 c 2.79791,1.53779 0.0318,-0.051 -2.45527,3.02462 z m 30.12015,196.2477 -33.67301,-18.50345 8.76479,-229.41525 9.8339,-13.63412 c 39.14183,-1.38378 -5.37687,15.06996 -5.37687,15.06996 z m 71.48312,-248.66003 6.81706,24.29668 -39.15792,8.76479 -10e-6,14.01959 25.77118,-4.86933 -7.79093,29.16602 -14.08478,-1.94774 -1.94773,12.2513 h 26.84028 v 18.45352 h -71.34665 v -18.45352 l 21.54592,-0.97387 0.97386,-14.19902 -15.05868,-0.97387 v -18.45349 h 17.00641 v -14.99345 h -22.13588 v -18.45349 h 27.97908 l -20.45119,-16.96769 29.31119,-10.71253 c 2.48704,0.76887 17.25047,5.02328 15.07432,8.86776 l -14.60799,18.81246 z m -13.81185,119.99761 8.76479,110.38843 c 0,0 12.41302,17.51058 8.07957,17.91507 l -31.30021,2.9216 -2.79791,-21.91353 h 6.06215 c 1.24352,0 1.86528,-1.53779 1.86528,-4.61338 v -21.91353 h -25.3589 c -0.5152,13.48867 -12.56524,28.13083 10.71253,39.2402 l -26.85594,12.66026 -5.8432,-143.44991 z m -14.19566,15.53189 -18.54184,-1.94773 v 15.17289 h 17.56797 z m 0.97387,32.65252 -17.56797,-2.9216 0.97386,16.14684 17.56797,4.86933 z M 514.60191,271.01362 c 27.39194,46.84957 -50.85997,59.66482 -54.59052,73.50491 l -8.90126,-41.36437 c 4.04141,-19.22232 12.9934,-17.01962 15.16957,-36.24199 l -1.38617,38.44266 c 7.39758,-5.48424 60.64932,-37.05787 49.70838,-34.34121 z m -73.96968,128.53292 c -7.4611,26.14245 -10.28128,46.51817 -22.09467,61.12716 l -11.48025,-23.06687 c 14.92218,-17.68461 25.80294,-41.90481 32.64228,-72.66062 h -29.84437 v -21.91348 h 30.77701 l -8.76479,-83.22011 17.62482,-0.97387 c -6.27777,0.76884 2.64245,3.07552 0.4663,6.92003 v 77.27395 h 33.57487 v 21.91348 h -30.77694 c 7.77197,30.75581 31.31297,42.93068 45.30248,56.00193 l -19.73746,34.31784 C 467.12986,443.73249 454.1047,413.64359 445.08923,380.58112 l 20.45119,82.96418 -37.56845,22.39892 z m -26.93555,-63.46035 c -3.41967,-12.30233 -27.40474,40.64436 -33.00056,28.34201 l 12.37168,-92.90273 c 5.28493,7.68897 10.10354,19.60685 14.45584,35.75364 z M 380.4772,489.50731 c 4.66317,-5.38228 9.79267,-12.68679 15.3885,-21.91353 v -73.81396 l -27.58245,12.66026 12.66026,-34.57379 h 24.24852 v 94.5741 c 4.35231,16.91571 12.74604,25.37357 25.18119,25.37357 l 53.46161,-10.71253 38.06325,43.33857 h -90.42732 c -10.56987,0 -23.48081,-21.09261 -30.9419,-41.85277 -4.66317,13.0712 -5.74177,31.03723 -11.0267,40.26397 z m 45.90531,-187.25355 c 4.66317,11.5334 7.41984,-22.5509 10.21775,-4.86629 l -3.01684,55.53693 c -2.17614,-15.37793 -19.07449,-56.66579 -23.42681,-71.27481 z m 73.93839,146.88653 c 10.88077,-39.98255 17.7201,-83.42514 20.51799,-130.32777 l 11.19161,6.92008 c 2.48702,2.30668 -2.53775,82.52264 -5.33564,84.82931 13.79905,47.10758 28.22933,12.4359 17.97033,54.72514 z m 79.74035,-130.32777 c 11.19163,36.907 29.47945,61.51267 35.38614,103.03298 L 570.678,454.00962 c 16.80309,-45.97973 10.16044,-87.52557 0.52321,-123.66364 z m -34.50751,167.23475 c 1.2435,0 1.86525,-1.53779 1.86525,-4.61338 L 543.52353,279.3164 514.82787,257.89135 c 3.10881,1.53782 46.11435,18.24754 43.31643,22.86093 l 19.47732,216.64893 c 0.89502,9.95544 -21.49803,14.01953 -25.53944,14.01953 l -32.53421,-9.73866 15.74679,-15.63481 z m 131.50162,14.9934 c -15.54393,6.92005 -31.08786,13.07121 -46.63179,18.45349 -0.31088,6.15119 -1.08808,7.30452 -2.3316,3.46001 l -7.66722,-61.15058 20.25783,28.85698 V 341.87942 c -6.52845,8.45781 -13.7199,52.38477 -19.62659,57.76705 l -4.70441,-116.73743 c 24.24853,-18.45351 41.89563,9.76105 49.04585,-26.37702 l 12.59056,3.45999 c 1.24352,3.07562 0.7772,4.99788 -1.39895,5.76677 v 3.46004 c 10.88076,29.98688 135.30102,33.98635 157.06251,47.05759 l -113.69494,41.74977 c -4.04143,-1.53777 -10.259,-6.92002 -18.65271,-16.14676 v 89.96072 l 6.06212,-14.99345 8.39373,20.76014 c 0.31089,3.84446 97.89416,-41.74776 96.02889,-43.28553 l -113.92668,87.36854 c 5.90669,9.99563 120.83567,-67.81066 136.37961,-63.9662 L 719.02398,521.80089 c -27.04644,-6.15119 -46.24793,-26.8094 -53.709,-77.55647 l -15.30607,-7.79093 12.66026,47.0311 14.38619,-3.20409 z m -0.93265,-64.58718 c 1.24352,8.45787 4.04144,18.06905 8.39376,28.83356 l 14.45585,-28.83356 z M 684.18662,418 682.23889,399.18754 h -24.43905 l 0.97386,17.83859 z m -21.51745,-41.16141 23.46518,0.97386 -1.94773,-17.83854 -25.41292,2.9216 z m 7.85774,-94.93305 c -6.83934,22.29798 -16.16569,41.52036 -27.97905,57.66715 h 24.24852 l -6.81706,-29.98685 h 15.67709 c 2.48702,0.76886 2.64245,3.07554 0.4663,6.92003 v 23.06682 h 23.31591 c -9.32635,-10.76451 -18.96359,-29.98689 -28.91171,-57.66715 z"
       id="text1"
       style="font-style:italic;font-weight:bold;font-size:42.6667px;line-height:0%;-inkscape-font-specification:'sans-serif Bold Italic';white-space:pre;inline-size:184.982;display:inline;fill:url(#linearGradient48);stroke-width:4.40709;paint-order:stroke fill markers"
       aria-label="情迷小食&#10;"
       sodipodi:nodetypes="cccccccccccccccccccccccccccccccccccccccccccccsccssccccccccccccccccccccccccccccccccccccccccccccccccccccccsccscccccccccccccccccccsscccssccscccccccccccccccccccccccccccccccccccccccccccccccccc" />
  </g>
</svg>
